<?xml version="1.0" standalone="no"?>
<!DOCTYPE svg PUBLIC "-//W3C//DTD SVG 20010904//EN"
 "http://www.w3.org/TR/2001/REC-SVG-20010904/DTD/svg10.dtd">
<svg version="1.0" xmlns="http://www.w3.org/2000/svg"
 width="610.000000pt" height="606.000000pt" viewBox="0 0 610.000000 606.000000"
 preserveAspectRatio="xMidYMid meet">

<g transform="translate(0.000000,606.000000) scale(0.100000,-0.100000)"
fill="#000000" stroke="none">
<path d="M0 5781 l0 -278 43 42 c85 85 195 82 274 -9 34 -38 49 -97 38 -148
-11 -46 -99 -135 -146 -148 -58 -16 -115 3 -166 55 l-43 42 0 -244 0 -245 31
26 c55 47 151 27 195 -39 22 -33 20 -102 -3 -133 -47 -63 -134 -77 -195 -32
l-28 21 0 -1683 0 -1683 23 32 c50 72 160 96 228 50 55 -37 79 -81 79 -146 0
-69 -31 -121 -90 -151 -60 -30 -118 -26 -171 12 -24 17 -49 39 -56 47 -10 13
-12 -109 -13 -576 l0 -593 3050 0 3050 0 0 931 0 931 -37 -22 c-21 -13 -67
-38 -103 -57 -58 -31 -62 -32 -35 -9 17 15 63 45 102 67 l73 40 -3 882 -2 882
-28 -2 c-23 -2 -27 1 -22 18 3 10 7 28 11 38 3 11 14 23 25 26 18 6 19 19 19
491 l0 485 -29 -22 c-42 -31 -118 -30 -165 1 -60 42 -70 89 -33 155 27 49 57
65 120 65 40 0 53 -5 78 -29 l29 -29 0 609 0 609 -3050 0 -3050 0 0 -279z
m3440 225 c587 -93 1177 -365 1610 -741 98 -85 302 -310 386 -425 199 -272
382 -612 424 -788 8 -33 8 -34 -18 -25 -15 4 -68 8 -119 8 -92 0 -92 0 -108
30 -9 17 -13 21 -10 11 5 -16 3 -17 -11 -5 -10 8 -14 23 -12 41 3 16 0 32 -5
35 -6 3 -7 1 -3 -5 4 -7 3 -12 -2 -12 -5 0 -9 14 -9 31 0 82 -216 435 -420
687 -80 98 -245 261 -353 346 -241 192 -653 399 -985 495 -215 62 -335 84
-469 87 -65 1 -122 7 -125 12 -20 30 -474 16 -681 -21 -157 -28 -390 -94 -499
-142 -42 -18 -86 -36 -98 -40 -13 -3 -62 -26 -110 -49 -485 -238 -867 -584
-1132 -1026 -67 -113 -156 -296 -181 -375 -7 -22 -21 -57 -32 -77 l-18 -38
-86 0 c-53 0 -98 -6 -121 -15 -19 -8 -37 -15 -38 -15 -2 0 4 24 12 53 75 256
245 586 427 825 230 303 546 581 878 772 323 186 748 330 1103 374 165 20 656
15 805 -8z m-247 -223 c-7 -2 -21 -2 -30 0 -10 3 -4 5 12 5 17 0 24 -2 18 -5z
m160 -20 c-7 -2 -19 -2 -25 0 -7 3 -2 5 12 5 14 0 19 -2 13 -5z m150 -20 c-7
-2 -21 -2 -30 0 -10 3 -4 5 12 5 17 0 24 -2 18 -5z m50 -10 c-7 -2 -19 -2 -25
0 -7 3 -2 5 12 5 14 0 19 -2 13 -5z m54 -9 c-3 -3 -12 -4 -19 -1 -8 3 -5 6 6
6 11 1 17 -2 13 -5z m-1282 -24 c-3 -5 -14 -10 -23 -9 -14 0 -13 2 3 9 27 11
27 11 20 0z m-48 -16 c-3 -3 -12 -4 -19 -1 -8 3 -5 6 6 6 11 1 17 -2 13 -5z
m1577 -25 c5 -5 -5 -4 -24 1 -18 5 -35 12 -39 16 -9 9 53 -7 63 -17z m201 -70
c34 -16 36 -18 11 -14 -16 4 -39 13 -50 21 -28 20 -9 16 39 -7z m1935 -36 c53
-56 65 -118 44 -220 -6 -29 -59 -90 -96 -109 -77 -40 -216 57 -242 168 -10 42
9 107 41 140 48 51 91 69 157 65 54 -3 62 -7 96 -44z m-2907 -9 c29 -15 129
-69 222 -122 147 -82 406 -219 790 -417 55 -29 181 -96 280 -150 222 -121 704
-365 722 -365 10 0 13 -124 15 -657 2 -362 2 -661 0 -665 -4 -9 -88 32 -122
60 l-25 20 19 38 c20 42 39 248 26 273 -4 8 -34 24 -66 35 -40 14 -62 29 -71
46 -10 19 -11 91 -6 313 l6 287 -89 -49 c-151 -82 -174 -97 -167 -106 5 -4 2
-5 -5 -1 -7 4 -41 -9 -80 -30 -37 -20 -98 -54 -137 -75 -38 -20 -69 -42 -67
-48 1 -6 -33 -28 -75 -49 -43 -20 -114 -56 -158 -79 -44 -22 -159 -79 -255
-125 -190 -92 -274 -141 -262 -153 4 -5 2 -5 -5 -1 -11 6 -44 -8 -140 -58 -18
-10 -33 -20 -33 -22 0 -3 5 -2 10 1 6 3 10 4 10 1 0 -3 -10 -10 -21 -17 -15
-7 -19 -8 -15 0 5 7 1 9 -8 5 -9 -3 -14 -10 -11 -14 3 -5 -5 -12 -17 -16 -13
-4 -50 -23 -84 -43 l-61 -36 -5 -840 c-2 -462 -1 -876 2 -920 6 -66 7 -71 8
-28 1 29 8 56 15 60 6 4 23 30 36 56 l25 49 13 -27 c8 -14 18 -23 23 -20 5 3
7 -6 4 -21 -3 -18 -1 -23 7 -18 9 5 10 2 6 -9 -3 -8 1 -21 9 -27 15 -13 20
-35 6 -26 -4 2 -8 -6 -8 -19 0 -13 3 -22 7 -19 12 7 19 -27 9 -45 -5 -10 -7
-21 -3 -24 3 -3 7 -30 8 -59 3 -64 14 -108 26 -108 19 0 281 130 441 219 91
50 170 91 177 91 7 0 37 -20 68 -45 61 -50 96 -63 118 -45 10 8 19 9 32 1 10
-6 13 -11 6 -11 -7 0 -10 -6 -7 -14 7 -19 -28 -42 -185 -121 -74 -36 -150 -77
-170 -89 -20 -13 -99 -55 -176 -95 -77 -40 -144 -77 -150 -81 -22 -17 -188
-102 -315 -160 -74 -34 -146 -73 -160 -85 -23 -22 -27 -23 -53 -8 -16 8 -26
17 -23 21 4 3 12 0 18 -6 7 -7 16 -12 20 -12 10 0 8 557 -1 755 -4 77 -9 122
-11 100 l-3 -40 -7 35 c-4 19 -8 29 -9 23 0 -7 -8 -13 -16 -13 -9 0 -18 -7
-21 -15 -4 -8 -11 -12 -16 -8 -7 4 -9 -4 -6 -21 3 -14 1 -29 -3 -32 -5 -3 -9
0 -9 5 0 6 -9 3 -20 -6 -16 -14 -20 -30 -20 -82 0 -35 -2 -62 -5 -60 -2 3 -6
376 -9 829 -7 1039 -7 980 0 1011 5 25 -1 30 -98 79 -57 30 -130 70 -163 90
-33 20 -152 85 -265 145 -113 59 -222 119 -243 132 -21 13 -118 66 -215 117
-97 51 -238 126 -312 166 -117 64 -291 150 -301 150 -2 0 -3 -352 -2 -782 2
-431 3 -914 3 -1073 l0 -291 65 -32 c43 -21 62 -27 58 -17 -3 10 1 15 12 15 9
0 14 -3 12 -7 -5 -8 1 -9 86 -13 37 -2 62 -12 120 -50 39 -26 90 -66 112 -89
21 -22 47 -41 57 -41 10 0 18 -4 18 -8 0 -5 6 -9 13 -9 6 0 43 -15 81 -32 38
-18 80 -35 93 -37 13 -3 45 -18 72 -34 26 -17 52 -30 57 -30 8 0 103 -44 234
-108 30 -15 56 -30 58 -34 2 -4 29 -19 60 -33 31 -14 69 -33 84 -41 17 -9 29
-11 33 -4 9 15 26 1 23 -18 -2 -13 4 -16 32 -15 26 2 30 1 15 -6 -19 -8 -19
-8 4 -20 12 -7 34 -10 47 -7 13 4 24 3 24 -2 0 -4 8 -17 18 -28 10 -10 24 -34
31 -52 8 -18 22 -39 32 -46 22 -15 40 -146 20 -146 -6 0 -11 4 -11 8 0 5 -33
27 -72 49 -139 77 -704 387 -818 448 -126 68 -291 161 -391 222 -35 22 -116
67 -179 101 -167 89 -152 69 -153 208 l-1 119 -3 -115 c-3 -83 -7 -111 -14
-100 -8 12 -9 10 -4 -8 4 -12 3 -22 -2 -21 -21 4 -33 -2 -33 -16 0 -18 21 -20
38 -3 9 9 15 9 25 -1 10 -10 9 -11 -4 -6 -21 8 -41 -17 -45 -57 -2 -17 -9 -37
-15 -44 -6 -8 -8 -14 -3 -14 5 0 25 -14 44 -31 31 -28 32 -29 5 -12 -16 11
-69 38 -117 61 l-88 41 0 678 c0 373 -3 951 -7 1286 -5 524 -4 607 8 607 27 0
926 461 1041 533 12 8 165 90 338 182 173 92 335 179 360 194 39 23 270 148
278 150 1 1 26 -11 55 -25z m1532 -252 c-3 -3 -11 0 -18 7 -9 10 -8 11 6 5 10
-3 15 -9 12 -12z m147 -92 c44 -32 219 -198 234 -221 4 -8 -39 30 -96 83 -58
53 -124 111 -147 127 -40 29 -51 41 -38 41 3 0 24 -14 47 -30z m-3412 16 c0
-2 -8 -10 -17 -17 -16 -13 -17 -12 -4 4 13 16 21 21 21 13z m3784 -388 l18
-33 -28 35 c-16 19 -37 41 -46 49 -10 9 -18 20 -18 25 0 15 53 -40 74 -76z
m-3618 -764 c25 -15 43 -28 40 -31 -5 -5 -106 45 -106 52 0 11 24 3 66 -21z
m151 -79 c23 -14 43 -28 43 -31 0 -5 -63 27 -90 45 -31 21 5 10 47 -14z m233
-129 c0 -9 -76 26 -100 45 -17 13 -4 10 38 -11 34 -16 62 -32 62 -34z m3923
30 c18 -7 45 -28 62 -45 36 -39 37 -91 3 -160 -56 -113 -219 -118 -269 -8 -34
76 -20 137 43 186 53 42 106 51 161 27z m-5345 -40 c42 -22 72 -60 78 -97 7
-41 -23 -91 -76 -127 -31 -21 -42 -23 -95 -17 -80 9 -121 27 -145 67 -39 65
-18 128 58 168 45 23 141 26 180 6z m3833 -141 l104 -44 7 -63 c4 -35 5 -90 2
-123 l-6 -61 83 -12 c45 -6 85 -10 87 -7 11 11 -11 35 -67 76 -89 65 -85 79
46 164 l53 34 60 -25 c32 -13 102 -47 155 -75 90 -48 95 -53 95 -82 -2 -86
-16 -117 -85 -187 l-68 -69 53 -80 c29 -45 56 -81 60 -81 4 0 15 9 25 20 22
24 45 25 113 5 l51 -15 3 -158 c2 -86 2 -162 0 -168 -4 -16 -109 -82 -142 -89
-36 -8 -45 -23 -55 -90 -4 -27 -20 -76 -37 -108 -28 -57 -29 -60 -11 -79 10
-11 35 -31 56 -45 21 -13 40 -30 44 -39 5 -14 -59 -96 -165 -207 l-55 -59 -52
52 -53 52 -46 -32 c-26 -17 -70 -42 -99 -54 l-52 -23 4 -115 3 -115 -34 -21
c-74 -46 -237 -129 -243 -124 -9 10 -5 221 5 227 6 3 10 21 10 40 0 32 -3 35
-37 41 -55 9 -174 49 -220 73 -22 11 -58 44 -81 73 -42 55 -102 163 -102 186
0 19 -19 14 -95 -22 -38 -19 -72 -31 -75 -27 -5 7 -67 34 -181 76 l-47 17 2
138 c0 84 4 130 9 117 8 -21 9 -21 18 -4 14 24 108 22 162 -4 20 -9 37 -14 37
-9 0 9 -38 28 -145 71 -81 32 -105 45 -105 59 0 4 34 24 75 43 l75 36 125 -41
c69 -22 127 -39 129 -37 2 2 6 47 9 99 3 52 3 85 1 72 -4 -16 -11 -21 -22 -18
-9 3 -30 8 -47 12 -16 3 -53 12 -80 20 -48 13 -50 16 -49 47 0 31 7 49 40 110
17 30 58 51 86 44 10 -3 18 -2 18 1 0 4 -43 23 -96 42 -53 19 -98 39 -101 43
-3 5 41 56 99 113 l104 105 158 -80 158 -79 52 39 c28 22 61 42 74 45 12 4 22
10 22 14 0 9 -32 16 -120 26 -36 4 -68 12 -72 18 -4 6 -8 49 -8 95 0 82 0 83
23 77 14 -3 35 2 54 13 21 13 34 16 41 9 6 -6 16 -8 23 -6 7 2 -13 15 -44 29
-31 13 -57 27 -57 30 0 4 40 23 90 44 49 20 97 46 106 56 9 11 23 19 29 19 7
0 59 -20 116 -45z m-2011 -70 c0 -3 -31 11 -70 30 -38 19 -70 38 -70 40 0 3
32 -11 70 -30 39 -19 70 -38 70 -40z m127 -71 c-4 -5 -117 56 -117 62 0 3 27
-9 60 -27 33 -18 59 -34 57 -35z m-2222 -47 c16 -15 53 -35 81 -44 l51 -16 -1
-311 c-1 -392 21 -559 106 -826 31 -100 119 -321 140 -355 19 -29 19 -29 16
-5 -2 20 1 24 17 22 16 -3 17 -1 8 9 -10 10 -15 10 -28 -1 -12 -10 -15 -10
-15 4 0 9 8 16 19 16 10 0 24 7 31 15 11 13 10 18 -6 30 -21 16 -8 20 15 6 8
-5 11 -16 8 -24 -3 -9 1 -18 10 -21 12 -5 14 -1 9 17 -4 17 1 30 17 45 22 21
24 21 38 4 8 -10 13 -24 11 -30 -5 -16 17 -44 29 -36 5 3 9 10 9 15 0 6 -4 7
-10 4 -12 -8 -13 5 -1 24 5 8 16 11 27 7 13 -5 15 -9 6 -18 -7 -7 -12 -18 -12
-26 0 -12 3 -12 15 -2 13 11 18 11 28 0 10 -10 9 -12 -5 -7 -10 4 -18 4 -18 1
0 -9 28 -34 38 -34 6 0 13 -7 16 -16 3 -8 10 -13 15 -9 5 3 13 1 16 -5 4 -6 3
-9 -2 -8 -4 2 -8 -1 -8 -7 0 -5 6 -9 15 -7 10 2 8 -1 -5 -11 -11 -9 -17 -19
-13 -23 4 -4 15 -1 24 7 16 13 16 12 5 -8 -8 -17 -9 -28 -1 -43 7 -13 7 -20 1
-20 -6 0 -8 -7 -5 -15 4 -8 1 -15 -6 -15 -6 0 -9 -4 -5 -10 3 -5 13 -7 23 -4
13 5 14 4 3 -4 -11 -8 -10 -12 5 -21 16 -10 14 -10 -11 -5 -21 4 -26 3 -16 -4
9 -7 14 -34 15 -91 0 -46 5 -81 11 -81 6 0 5 -3 -1 -8 -14 -9 -29 -66 -14 -57
5 3 10 1 10 -4 0 -6 -4 -11 -9 -11 -23 0 29 -105 89 -181 76 -96 263 -284 268
-269 2 5 8 10 13 10 6 0 8 -4 5 -9 -7 -11 13 -9 32 2 7 5 12 3 12 -3 0 -6 5
-8 10 -5 6 3 17 -1 26 -9 14 -14 41 -20 81 -19 7 1 10 -3 7 -8 -3 -5 2 -16 10
-25 9 -8 16 -11 16 -5 0 6 5 11 10 11 6 0 10 -6 10 -14 0 -8 4 -18 10 -21 6
-3 7 1 4 9 -3 9 -2 16 4 16 5 0 12 -9 15 -20 3 -11 19 -25 35 -31 17 -6 33
-17 36 -26 4 -9 13 -13 21 -9 9 3 18 -1 21 -9 4 -8 10 -12 15 -9 5 3 9 -2 9
-10 0 -15 11 -20 36 -17 6 1 17 -6 24 -14 7 -8 19 -15 26 -15 13 0 94 -38 104
-49 3 -4 12 -7 20 -9 8 -2 36 -14 61 -27 26 -13 49 -21 53 -18 3 4 6 1 6 -6 0
-8 6 -11 17 -7 10 4 14 4 10 0 -9 -9 47 -34 74 -34 11 0 22 -7 25 -15 3 -8 21
-17 40 -21 19 -3 34 -10 34 -16 0 -5 5 -6 11 -3 5 4 18 -2 27 -13 9 -10 23
-17 31 -14 8 3 11 0 7 -6 -7 -12 29 -26 44 -17 6 3 7 -1 4 -10 -5 -11 -2 -14
10 -9 9 3 16 1 16 -6 0 -6 5 -8 10 -5 6 3 10 1 10 -4 0 -6 9 -11 21 -11 26 0
91 -44 81 -55 -4 -4 1 -6 10 -2 10 3 28 -4 44 -18 56 -48 239 -69 541 -63 218
5 488 32 478 48 -2 4 7 5 20 2 18 -3 25 0 25 11 0 9 13 18 33 23 17 3 42 17
54 30 12 13 28 24 36 24 8 0 20 7 27 15 7 9 18 14 24 12 6 -2 17 2 24 9 7 7
19 11 27 8 7 -3 24 0 37 7 13 7 27 12 32 11 4 -2 15 3 23 9 11 10 11 14 1 21
-8 6 -4 7 12 2 14 -3 22 -3 18 1 -9 9 21 40 30 31 3 -4 0 -11 -8 -16 -8 -5
-12 -12 -8 -15 4 -4 14 5 24 20 13 20 19 23 25 13 7 -10 9 -10 9 2 0 9 9 23
20 33 11 9 20 13 20 7 0 -5 12 -2 28 5 15 8 36 12 47 9 18 -4 18 -4 3 6 -10 6
-18 16 -18 22 0 7 5 6 15 -2 11 -10 18 -9 30 4 9 9 25 16 36 16 10 0 19 5 19
10 0 6 9 10 20 10 11 0 19 6 17 13 -1 6 6 11 15 9 22 -3 92 44 76 52 -7 3 -2
3 11 0 16 -4 21 -3 16 5 -5 8 2 10 22 6 18 -4 23 -3 15 2 -10 7 -8 13 7 27 11
10 24 15 29 12 5 -3 15 1 22 9 7 8 16 12 21 9 5 -3 9 0 9 5 0 6 9 11 20 11 10
0 25 6 32 14 9 9 20 11 35 5 27 -10 30 -1 6 17 -16 12 -15 12 7 8 17 -4 21 -3
12 4 -9 6 -2 9 25 8 26 -1 43 5 54 18 17 20 74 33 63 14 -5 -7 -2 -8 6 -3 7 4
15 2 20 -4 5 -9 10 -8 20 4 11 13 10 15 -4 9 -17 -7 -23 11 -6 21 6 4 7 11 4
17 -4 7 -2 8 5 4 6 -4 18 -2 26 4 11 9 15 9 15 1 0 -6 -4 -11 -10 -11 -5 0
-10 -5 -10 -10 0 -6 8 -5 20 2 11 7 20 18 20 25 0 7 5 13 11 13 27 0 194 174
327 339 51 65 64 95 20 49 -13 -13 -18 -17 -12 -8 12 17 34 68 34 77 0 4 -5 2
-12 -5 -16 -16 -33 -16 -21 1 6 6 13 22 16 35 4 19 3 21 -9 11 -12 -10 -13 -9
-8 4 3 10 -6 27 -27 46 -32 31 -32 31 -8 32 17 1 19 3 7 6 -19 5 -25 23 -7 23
5 0 7 5 3 11 -5 8 -9 8 -14 -1 -16 -26 -30 3 -30 65 0 67 -2 65 45 55 21 -5
29 1 15 10 -8 5 -11 12 -8 15 4 4 16 1 27 -7 12 -8 18 -18 14 -21 -3 -4 -1 -7
5 -7 19 0 14 15 -13 44 -27 30 -30 36 -15 36 6 0 10 -7 10 -15 0 -9 9 -15 23
-15 17 0 19 2 7 10 -11 7 -12 13 -2 32 24 48 10 71 -28 44 -13 -10 -13 -9 -1
7 7 9 22 17 33 17 14 0 18 5 14 15 -4 13 -2 13 14 5 25 -13 30 -13 30 5 0 17
35 21 45 5 5 -8 12 -7 22 2 14 11 15 10 9 -9 -5 -16 -2 -23 14 -28 12 -4 19
-9 16 -12 -3 -3 -17 2 -32 11 -14 10 -28 15 -31 12 -3 -3 -12 2 -19 12 -9 11
-14 13 -15 5 -1 -7 -3 -17 -4 -23 -1 -5 -3 -17 -4 -26 -1 -10 -7 -14 -16 -10
-9 3 -15 0 -15 -9 0 -18 12 -19 28 -3 6 6 15 9 18 5 9 -9 -24 -39 -36 -32 -5
3 -18 1 -27 -5 -17 -11 -16 -11 1 -5 11 3 23 0 28 -7 8 -10 11 -10 15 0 2 6
11 12 19 12 8 0 13 3 13 8 -6 36 23 44 43 12 7 -11 18 -20 24 -20 6 0 17 -7
24 -15 7 -8 19 -15 28 -15 12 0 11 4 -6 20 -12 11 -26 20 -31 20 -6 0 -15 10
-21 23 -10 20 -10 20 3 5 8 -10 20 -18 26 -18 7 0 22 -10 33 -22 16 -18 18
-19 14 -5 -3 11 -2 16 4 12 6 -3 10 -1 10 6 0 7 3 10 6 7 6 -7 -46 -109 -60
-120 -5 -3 -11 -12 -12 -20 -1 -7 -5 -22 -9 -33 -13 -38 53 72 103 171 142
282 222 541 268 879 19 135 26 517 11 601 l-7 41 56 7 c66 8 108 27 130 61 20
31 39 32 41 3 1 -13 8 -63 14 -113 19 -136 16 -485 -5 -630 -33 -236 -87 -468
-130 -567 -13 -29 -33 -82 -46 -118 -59 -167 -151 -352 -278 -555 -120 -192
-413 -512 -637 -697 -260 -214 -590 -399 -934 -522 -281 -101 -705 -165 -1005
-152 -491 22 -770 85 -1151 263 -389 182 -664 380 -928 668 -239 261 -404 516
-567 875 -67 148 -80 186 -145 420 -79 290 -96 412 -95 720 0 201 9 313 37
434 l15 70 22 -30 c11 -16 34 -41 51 -57z m1192 -44 c-3 -10 -5 -2 -5 17 0 19
2 27 5 18 2 -10 2 -26 0 -35z m734 -249 c250 -125 496 -249 546 -278 l93 -51
0 -55 c0 -30 -4 -61 -9 -68 -6 -10 -77 21 -302 133 -290 146 -687 351 -702
365 -9 8 -19 45 -21 83 0 15 -5 27 -9 27 -4 0 -7 8 -5 17 2 10 -7 22 -20 28
-23 12 -39 25 -31 25 3 0 210 -102 460 -226z m654 155 c50 -23 84 -44 76 -47
-13 -4 -181 75 -217 103 -17 14 -16 14 16 1 19 -7 76 -33 125 -57z m-1161
-190 c-3 -5 1 -6 9 -3 12 4 116 -43 387 -179 202 -102 665 -340 709 -364 l44
-25 -7 -71 c-7 -78 -10 -84 -28 -70 -7 6 -139 75 -293 153 -154 78 -307 157
-340 175 -33 18 -150 79 -259 135 -234 120 -258 134 -248 144 4 4 3 7 -3 6
-24 -5 -34 1 -32 20 1 11 8 20 15 20 8 0 12 6 8 15 -3 8 0 15 7 16 9 0 9 2 0
6 -17 7 6 43 24 36 7 -3 10 -9 7 -14z m4056 -94 l0 -55 -160 0 -160 0 0 50 0
49 158 4 c86 1 158 4 160 5 1 1 2 -23 2 -53z m-4930 -10 l0 -55 -167 2 -168 3
-3 50 -3 50 171 2 170 3 0 -55z m823 -137 c146 -69 229 -111 567 -285 131 -68
437 -229 560 -294 19 -11 44 -19 56 -19 22 0 22 -3 17 -77 -3 -43 -7 -80 -9
-82 -3 -3 -701 345 -719 359 -5 4 -111 60 -235 123 -124 64 -257 134 -295 156
-38 23 -85 46 -103 52 -28 9 -33 15 -28 33 3 11 6 40 6 64 0 31 4 42 16 42 8
0 84 -32 167 -72z m1916 -68 c-4 -15 -7 9 -7 60 1 83 1 84 8 25 3 -33 3 -71
-1 -85z m1906 -90 c13 0 27 -5 31 -12 5 -8 10 -6 15 8 7 15 8 12 6 -11 -2 -28
-5 -30 -44 -33 -33 -2 -43 0 -44 12 -1 9 -2 22 -3 29 -3 17 7 33 12 19 2 -7
14 -12 27 -12z m-3905 -81 c30 -15 156 -78 280 -138 124 -61 254 -127 290
-147 90 -50 388 -202 480 -244 42 -19 113 -55 159 -80 l83 -45 -7 -58 c-3 -32
-8 -64 -11 -72 -4 -9 -44 7 -147 60 -78 40 -293 149 -477 243 -184 93 -420
215 -525 271 -104 56 -200 104 -213 107 -18 5 -22 12 -18 28 3 11 6 43 6 69 0
45 1 48 23 42 12 -4 47 -20 77 -36z m3618 -527 c-2 -212 -6 -266 -16 -264 -17
3 -213 -98 -305 -157 -124 -81 -457 -261 -481 -261 -6 0 -46 38 -46 43 0 2 10
3 23 3 15 -1 21 4 19 16 -2 11 7 18 28 23 17 4 29 10 26 13 -4 3 16 16 44 29
67 31 90 69 90 151 0 35 4 72 10 82 12 23 55 36 139 44 79 7 135 33 201 93 46
41 50 49 50 89 0 41 3 46 50 80 79 57 84 73 59 193 -12 55 -19 107 -15 116 3
9 18 23 34 32 16 9 42 41 58 72 l29 56 3 -93 c1 -51 1 -213 0 -360z m-3452
172 c126 -64 278 -141 338 -171 60 -30 144 -74 188 -99 43 -24 115 -61 161
-80 45 -20 141 -69 212 -109 72 -40 150 -80 175 -89 l46 -17 -10 -79 -9 -80
-31 19 c-92 56 -218 124 -345 186 -79 39 -259 128 -400 199 -141 71 -334 168
-428 215 -168 82 -173 86 -173 115 0 64 12 106 30 106 9 0 120 -52 246 -116z
m3634 -184 c0 -5 -4 -10 -10 -10 -5 0 -10 5 -10 10 0 6 5 10 10 10 6 0 10 -4
10 -10z m-4600 -40 c-8 -5 -19 -10 -25 -10 -5 0 -3 5 5 10 8 5 20 10 25 10 6
0 3 -5 -5 -10z m4647 -6 c-3 -3 -12 -4 -19 -1 -8 3 -5 6 6 6 11 1 17 -2 13 -5z
m-4607 -14 c0 -5 -2 -10 -4 -10 -3 0 -8 5 -11 10 -3 6 -1 10 4 10 6 0 11 -4
11 -10z m-89 -23 c-10 -9 -11 -8 -5 6 3 10 9 15 12 12 3 -3 0 -11 -7 -18z
m144 13 c3 -5 2 -10 -4 -10 -5 0 -13 5 -16 10 -3 6 -2 10 4 10 5 0 13 -4 16
-10z m35 -21 c0 -6 -4 -7 -10 -4 -5 3 -10 11 -10 16 0 6 5 7 10 4 6 -3 10 -11
10 -16z m4530 11 c0 -5 -5 -10 -11 -10 -5 0 -7 5 -4 10 3 6 8 10 11 10 2 0 4
-4 4 -10z m-1765 -24 c49 2 157 3 204 1 29 -1 46 -7 49 -17 3 -8 2 -12 -2 -9
-3 3 -42 -30 -86 -75 -43 -45 -75 -83 -69 -85 9 -3 33 22 94 96 16 20 33 30
45 28 13 -3 17 1 13 11 -6 18 -2 18 32 0 17 -9 22 -16 13 -19 -15 -5 7 -2 32
4 8 2 14 -1 13 -8 -2 -7 4 -10 12 -7 11 5 15 -1 15 -18 0 -17 -25 -48 -85
-106 -47 -46 -85 -88 -85 -94 0 -6 -9 1 -20 15 -27 34 -127 95 -223 137 -43
18 -80 37 -83 42 -4 5 3 18 14 28 11 11 33 36 48 55 15 20 30 32 33 28 3 -5
20 -8 36 -7z m1714 -24 c-5 -2 -17 -1 -27 3 -13 5 -14 8 -3 15 8 5 19 3 26 -3
7 -7 9 -14 4 -15z m41 -12 c0 -5 -4 -10 -10 -10 -5 0 -10 5 -10 10 0 6 5 10
10 10 6 0 10 -4 10 -10z m-4480 -30 c0 -5 -4 -10 -10 -10 -5 0 -10 5 -10 10 0
6 5 10 10 10 6 0 10 -4 10 -10z m20 -20 c0 -5 -5 -10 -11 -10 -5 0 -7 5 -4 10
3 6 8 10 11 10 2 0 4 -4 4 -10z m459 -36 c2 -2 -2 -4 -10 -4 -8 0 -25 10 -39
21 l-25 20 35 -17 c19 -9 37 -18 39 -20z m4006 16 c3 -5 -1 -10 -9 -10 -9 0
-16 5 -16 10 0 6 4 10 9 10 6 0 13 -4 16 -10z m-125 -19 c0 -5 -7 -11 -14 -14
-10 -4 -13 -1 -9 9 6 15 23 19 23 5z m-90 -45 c0 -3 -4 -8 -10 -11 -5 -3 -10
-1 -10 4 0 6 5 11 10 11 6 0 10 -2 10 -4z m-3613 -59 c-2 -6 -10 -12 -18 -15
-11 -3 -11 -2 1 7 10 7 11 11 3 11 -7 0 -13 4 -13 10 0 5 7 7 15 3 9 -3 14
-10 12 -16z m2456 -41 c3 -30 1 -43 -4 -35 -5 8 -8 34 -8 59 1 53 6 44 12 -24z
m-2380 5 c17 -7 25 -15 21 -23 -5 -7 -3 -8 6 -3 8 5 18 2 26 -9 7 -10 15 -17
18 -17 20 3 26 0 21 -8 -3 -5 0 -13 6 -17 8 -4 9 -3 5 4 -9 15 7 15 21 1 7 -7
38 -27 70 -45 50 -29 54 -33 31 -34 -15 0 -29 -4 -32 -9 -8 -12 60 -19 78 -9
8 5 17 4 21 -2 3 -5 28 -20 56 -31 27 -12 49 -26 49 -31 0 -5 4 -7 9 -3 5 3
16 0 23 -7 21 -20 56 -38 73 -38 8 0 24 -9 35 -20 12 -12 25 -18 30 -15 5 3
13 -3 19 -12 6 -10 11 -14 11 -10 0 5 13 0 30 -9 21 -13 26 -21 17 -27 -8 -6
-6 -7 6 -3 25 8 47 -3 47 -25 0 -10 5 -19 10 -19 6 0 10 -7 10 -15 0 -8 5 -15
11 -15 5 0 7 6 3 13 -6 10 -4 10 7 0 16 -16 33 -17 23 -1 -4 7 -3 8 5 4 15
-10 3 -29 -15 -22 -19 7 -18 1 11 -49 25 -41 25 -43 5 -38 -11 3 -27 0 -35 -7
-13 -11 -14 -10 -9 3 4 12 1 14 -15 10 -18 -5 -19 -8 -9 -21 14 -16 14 -16
-69 26 -40 20 -42 30 -5 26 24 -4 23 -2 -8 10 -43 18 -53 19 -45 6 10 -16 -1
-12 -84 30 -85 42 -102 57 -80 71 11 7 11 9 1 9 -7 0 -15 -6 -18 -14 -6 -16
-16 -12 -92 37 -24 15 -55 33 -70 40 -15 6 -76 41 -137 78 -60 36 -146 85
-190 109 -44 24 -82 46 -85 51 -3 4 -16 10 -30 14 -14 3 -38 17 -55 31 -30 24
-30 24 -5 22 14 -2 27 -6 30 -9 3 -4 20 -10 38 -14 25 -5 32 -3 32 9 0 9 2 16
4 16 2 0 11 3 20 6 10 4 16 1 16 -9 0 -20 27 -29 50 -17 10 6 29 10 42 11 15
0 18 3 8 6 -27 10 -39 24 -33 39 5 13 7 13 22 0 9 -8 29 -19 44 -25z m-668
-81 c3 -5 1 -10 -4 -10 -6 0 -11 5 -11 10 0 6 2 10 4 10 3 0 8 -4 11 -10z
m2072 -87 c-3 -10 -5 -2 -5 17 0 19 2 27 5 18 2 -10 2 -26 0 -35z m2973 -83
c15 -5 -1 -6 -40 -3 -50 4 -77 1 -117 -15 -64 -24 -70 -19 -10 8 43 20 121 25
167 10z m-3093 -102 c-3 -8 -6 -5 -6 6 -1 11 2 17 5 13 3 -3 4 -12 1 -19z
m3138 -59 c57 -53 73 -100 55 -165 -24 -86 -84 -134 -166 -134 -60 0 -113 30
-148 83 -24 36 -27 50 -24 100 7 101 70 157 175 157 60 0 66 -2 108 -41z
m-3405 -155 c0 -2 -9 0 -20 6 -11 6 -20 13 -20 16 0 2 9 0 20 -6 11 -6 20 -13
20 -16z m-244 1 c18 -13 18 -14 -6 -9 -23 5 -24 4 -7 -9 25 -21 21 -28 -8 -15
-18 8 -22 15 -15 23 5 7 7 15 3 18 -13 13 13 7 33 -8z m44 -55 c8 -5 11 -10 5
-10 -5 0 -17 5 -25 10 -8 5 -10 10 -5 10 6 0 17 -5 25 -10z m-2190 -525 c16
-19 16 -61 0 -80 -15 -18 -61 -20 -78 -3 -18 18 -15 42 9 72 23 29 50 34 69
11z m5702 -12 c34 -30 16 -73 -31 -73 -29 0 -61 26 -61 50 0 39 58 54 92 23z"/>
<path d="M2940 5238 c-52 -28 -174 -93 -270 -145 -96 -53 -285 -155 -420 -228
-135 -72 -272 -147 -305 -165 -33 -18 -105 -55 -160 -83 -55 -27 -141 -76
-191 -108 -50 -33 -96 -59 -102 -59 -17 0 -15 -11 6 -27 22 -17 278 -163 286
-163 4 0 82 -44 174 -98 152 -90 244 -139 567 -307 489 -254 499 -259 489
-228 -5 14 -4 15 4 4 9 -13 13 -13 28 0 11 9 15 9 10 2 -4 -7 -4 -13 1 -13 4
0 13 11 20 25 6 14 7 25 2 25 -5 0 -9 4 -9 8 0 4 15 7 33 6 17 -1 22 1 10 3
-24 4 -30 18 -14 28 5 3 12 1 16 -5 3 -5 14 -10 23 -10 11 0 6 6 -13 16 -39
20 -41 23 -17 21 11 0 18 -5 16 -9 -3 -4 4 -8 15 -8 12 0 21 5 21 11 0 5 -4 7
-10 4 -6 -3 -7 1 -3 10 5 13 7 14 14 3 5 -7 9 -8 9 -3 0 6 5 3 10 -5 9 -13 10
-13 10 0 0 9 -6 22 -12 29 -11 10 -10 11 5 6 9 -4 17 -11 17 -16 0 -5 5 -9 10
-9 12 0 14 26 3 33 -5 2 -2 2 6 0 8 -2 18 1 21 8 6 8 9 8 14 0 4 -6 2 -11 -3
-11 -6 0 -11 -4 -11 -10 0 -5 7 -7 15 -4 17 7 20 40 5 49 -5 3 -10 12 -10 18
0 8 3 7 9 -2 7 -11 11 -10 20 5 6 11 11 14 11 7 0 -6 -5 -15 -10 -18 -7 -4 -7
-12 0 -24 5 -10 6 -21 3 -25 -3 -3 -1 -6 6 -6 6 0 10 10 8 23 -2 12 -2 16 0
10 3 -7 8 -13 13 -13 5 0 16 -7 24 -16 9 -8 20 -12 26 -9 12 7 13 35 2 35 -5
0 -9 7 -9 16 0 14 2 14 14 -2 7 -10 13 -21 13 -26 0 -4 5 -8 11 -8 5 0 7 5 3
12 -4 6 -3 8 3 5 10 -6 104 33 173 73 19 11 103 55 185 96 153 78 372 197 570
309 61 34 139 77 175 95 36 18 75 41 88 51 l23 18 -38 24 c-42 26 -198 112
-423 232 -80 43 -203 110 -275 150 -178 99 -255 137 -255 126 0 -5 8 -12 18
-15 9 -4 28 -16 42 -27 21 -17 16 -16 -27 5 -35 17 -51 31 -47 40 6 15 -119
88 -346 201 -74 37 -148 78 -166 91 -17 13 -37 24 -45 23 -8 -1 -57 -24 -109
-51z m588 -222 c23 -16 42 -30 42 -32 0 -3 -27 9 -60 26 -34 17 -58 35 -55 40
7 11 8 10 73 -34z m317 -171 c22 -14 36 -25 30 -24 -17 0 -101 48 -85 48 8 0
33 -11 55 -24z m-745 -71 c70 -28 109 -124 73 -184 -22 -38 -99 -80 -146 -80
-37 0 -104 43 -131 85 -20 30 -21 77 -2 114 19 35 37 50 83 67 50 18 75 17
123 -2z m958 -49 c15 -8 63 -32 107 -53 105 -51 145 -75 145 -85 0 -5 -35 10
-77 34 -43 23 -107 57 -142 76 -35 18 -66 35 -69 38 -10 10 10 5 36 -10z m352
-197 c0 -4 -20 5 -45 20 -25 15 -45 30 -45 34 0 4 20 -5 45 -20 25 -15 45 -30
45 -34z m-1335 -33 c54 6 58 5 40 -9 -15 -10 -22 -11 -27 -3 -5 8 -8 7 -8 -4
0 -40 -101 -22 -149 25 l-25 26 54 -21 c44 -17 67 -20 115 -14z m1385 -1 c0
-2 -9 0 -20 6 -11 6 -20 13 -20 16 0 2 9 0 20 -6 11 -6 20 -13 20 -16z m59
-15 c17 -6 31 -15 31 -21 0 -5 4 -7 9 -3 5 3 12 1 15 -4 4 -5 1 -13 -5 -17 -6
-4 -16 1 -21 10 -5 9 -17 16 -26 16 -18 1 -63 30 -45 30 5 0 24 -5 42 -11z
m-1964 -63 c52 -53 41 -116 -27 -149 -34 -17 -39 -17 -67 -3 -69 36 -80 97
-26 145 44 38 86 41 120 7z m1066 9 c35 -19 48 -48 42 -92 -10 -64 -76 -90
-132 -51 -44 30 -55 49 -48 80 18 70 74 96 138 63z m-519 -306 c11 -6 26 -26
34 -45 12 -29 12 -39 0 -68 -27 -65 -93 -71 -141 -14 -39 46 -30 94 23 122 33
18 57 20 84 5z m300 -283 c7 5 8 2 3 -6 -6 -10 -4 -12 9 -7 9 4 15 3 11 -2 -3
-6 -14 -9 -25 -8 -10 1 -17 4 -14 8 2 4 0 10 -6 14 -5 3 -10 12 -10 18 0 7 5
4 11 -6 6 -9 15 -14 21 -11z m56 -11 c-3 -3 -9 2 -12 12 -6 14 -5 15 5 6 7 -7
10 -15 7 -18z m-109 -27 c14 -19 5 -23 -18 -9 -7 5 -10 14 -6 21 4 6 8 10 9 8
1 -2 8 -11 15 -20z m-666 -2 c-4 -5 0 -7 9 -4 8 4 15 0 15 -7 0 -11 -6 -11
-29 1 -33 17 -34 20 -9 20 11 0 17 -5 14 -10z"/>
<path d="M3200 3690 c0 -5 7 -7 15 -4 8 4 15 8 15 10 0 2 -7 4 -15 4 -8 0 -15
-4 -15 -10z"/>
<path d="M3086 3633 c-6 -14 -5 -15 5 -6 7 7 10 15 7 18 -3 3 -9 -2 -12 -12z"/>
<path d="M1032 2186 c2 -25 6 -46 11 -46 11 0 8 78 -3 85 -7 4 -9 -10 -8 -39z"/>
<path d="M1068 1973 c7 -3 16 -2 19 1 4 3 -2 6 -13 5 -11 0 -14 -3 -6 -6z"/>
<path d="M1068 1953 c7 -3 16 -2 19 1 4 3 -2 6 -13 5 -11 0 -14 -3 -6 -6z"/>
<path d="M1092 1945 l-23 -12 23 -15 c32 -20 60 -30 53 -18 -3 6 -12 10 -20
10 -17 0 -27 27 -12 33 7 2 10 6 7 9 -3 3 -15 -1 -28 -7z"/>
<path d="M3858 1464 c-38 -20 -36 -28 2 -9 17 9 30 18 30 20 0 7 -1 6 -32 -11z"/>
<path d="M3779 1413 c-13 -16 -12 -17 4 -4 16 13 21 21 13 21 -2 0 -10 -8 -17
-17z"/>
<path d="M3708 1374 c-38 -20 -36 -28 2 -9 17 9 30 18 30 20 0 7 -1 6 -32 -11z"/>
<path d="M3154 1260 c0 -52 1 -74 3 -47 2 26 2 68 0 95 -2 26 -3 4 -3 -48z"/>
<path d="M3643 1338 c-13 -6 -23 -15 -23 -20 0 -5 11 -1 25 8 37 24 35 30 -2
12z"/>
<path d="M3490 1253 c-58 -30 -152 -80 -209 -109 -57 -30 -102 -54 -98 -54 19
0 115 45 198 92 52 30 123 69 159 87 70 36 78 41 64 41 -5 -1 -56 -26 -114
-57z"/>
<path d="M4244 3096 c-104 -38 -190 -112 -252 -217 -99 -165 -85 -436 28 -544
29 -28 32 -29 76 -17 181 49 273 148 333 358 11 38 20 59 20 46 1 -14 5 -21
12 -16 6 4 51 14 100 24 l89 17 1 -26 c1 -14 5 -4 10 24 15 79 3 144 -39 215
-84 143 -224 194 -378 136z"/>
<path d="M4153 1845 c0 -22 2 -30 4 -17 2 12 2 30 0 40 -3 9 -5 -1 -4 -23z"/>
<path d="M4153 1735 c0 -33 2 -45 4 -27 2 18 2 45 0 60 -2 15 -4 0 -4 -33z"/>
<path d="M690 2071 c0 -6 5 -13 10 -16 6 -3 10 1 10 9 0 9 -4 16 -10 16 -5 0
-10 -4 -10 -9z"/>
<path d="M670 2050 c0 -5 4 -10 10 -10 11 0 63 -50 57 -56 -9 -9 -37 9 -37 25
0 14 -2 14 -10 1 -6 -9 -5 -17 2 -21 6 -4 7 -12 4 -18 -4 -6 -12 -8 -18 -5 -7
5 -8 2 -4 -5 6 -9 13 -8 27 5 13 12 19 13 19 4 0 -10 3 -10 15 0 13 11 13 16
-2 41 -10 16 -23 29 -30 29 -7 0 -13 5 -13 10 0 6 -4 10 -10 10 -5 0 -10 -4
-10 -10z"/>
<path d="M634 1995 c3 -9 -1 -18 -9 -21 -8 -4 -15 -10 -15 -15 0 -5 12 -2 26
8 15 9 22 19 15 21 -6 2 -9 8 -5 13 3 5 0 9 -6 9 -7 0 -9 -7 -6 -15z"/>
<path d="M767 1983 c-3 -5 6 -9 19 -9 13 -1 21 2 18 7 -6 11 -31 12 -37 2z"/>
<path d="M5245 1980 c-4 -6 3 -10 14 -10 25 0 27 6 6 13 -8 4 -17 2 -20 -3z"/>
<path d="M630 1950 c0 -5 4 -10 9 -10 6 0 13 5 16 10 3 6 -1 10 -9 10 -9 0
-16 -4 -16 -10z"/>
<path d="M827 1949 c7 -7 15 -10 18 -7 3 3 -2 9 -12 12 -14 6 -15 5 -6 -5z"/>
<path d="M800 1931 c0 -5 5 -13 10 -16 6 -3 10 -2 10 4 0 5 -4 13 -10 16 -5 3
-10 2 -10 -4z"/>
<path d="M761 1914 c0 -11 3 -14 6 -6 3 7 2 16 -1 19 -3 4 -6 -2 -5 -13z"/>
<path d="M5328 1913 c7 -3 16 -2 19 1 4 3 -2 6 -13 5 -11 0 -14 -3 -6 -6z"/>
<path d="M5341 1892 c-9 -3 -1 -10 19 -18 18 -8 36 -12 39 -9 7 8 -21 25 -30
19 -4 -2 -9 0 -11 4 -1 5 -9 7 -17 4z"/>
<path d="M5268 1863 c6 -2 12 -11 12 -19 0 -8 5 -14 10 -14 16 0 11 27 -6 34
-9 3 -19 6 -22 5 -4 0 -1 -3 6 -6z"/>
<path d="M5232 1848 c2 -6 10 -14 16 -16 7 -2 10 2 6 12 -7 18 -28 22 -22 4z"/>
<path d="M5316 1853 c-3 -4 -6 -11 -6 -17 0 -6 4 -4 10 4 5 8 12 11 16 7 4 -3
2 -13 -5 -21 -9 -11 -9 -15 0 -18 9 -3 9 -9 0 -26 -6 -12 -8 -22 -4 -23 4 0
15 -2 23 -4 21 -4 40 19 29 36 -7 11 -9 11 -9 -3 0 -10 -7 -18 -15 -18 -8 0
-15 5 -15 10 0 6 5 10 11 10 8 0 8 4 0 14 -9 10 -9 20 -2 33 7 15 6 19 -9 20
-10 1 -21 -1 -24 -4z"/>
<path d="M5410 1850 c0 -5 -7 -10 -15 -10 -18 0 -20 -16 -2 -26 6 -4 9 -4 5 1
-4 4 3 16 15 26 12 10 16 18 10 19 -7 0 -13 -4 -13 -10z"/>
<path d="M850 1820 c0 -5 5 -10 11 -10 5 0 7 5 4 10 -3 6 -8 10 -11 10 -2 0
-4 -4 -4 -10z"/>
<path d="M5125 1810 c-3 -5 -1 -10 4 -10 6 0 11 5 11 10 0 6 -2 10 -4 10 -3 0
-8 -4 -11 -10z"/>
<path d="M5220 1806 c0 -2 7 -9 15 -16 13 -11 14 -10 9 4 -5 14 -24 23 -24 12z"/>
<path d="M5180 1790 c0 -6 4 -9 9 -6 5 4 12 1 14 -4 3 -6 4 -5 3 2 -3 15 -26
23 -26 8z"/>
<path d="M5225 1760 c-3 -5 -1 -10 4 -10 6 0 11 5 11 10 0 6 -2 10 -4 10 -3 0
-8 -4 -11 -10z"/>
<path d="M5297 1763 c-14 -14 -7 -32 10 -26 11 4 13 8 5 11 -7 2 -10 8 -6 13
6 10 0 12 -9 2z"/>
<path d="M5120 1731 c0 -25 6 -27 13 -6 4 8 2 17 -3 20 -6 4 -10 -3 -10 -14z"/>
<path d="M5170 1746 c0 -2 7 -9 15 -16 9 -7 15 -8 15 -2 0 5 -7 12 -15 16 -8
3 -15 4 -15 2z"/>
<path d="M5220 1720 c-12 -23 -5 -26 16 -6 8 9 10 17 5 21 -6 3 -15 -4 -21
-15z"/>
<path d="M5309 1713 c-13 -16 -12 -17 4 -4 16 13 21 21 13 21 -2 0 -10 -8 -17
-17z"/>
<path d="M5360 1700 c-6 -11 -8 -20 -6 -20 3 0 10 9 16 20 6 11 8 20 6 20 -3
0 -10 -9 -16 -20z"/>
<path d="M5235 1690 c-3 -5 1 -10 9 -10 9 0 16 5 16 10 0 6 -4 10 -9 10 -6 0
-13 -4 -16 -10z"/>
<path d="M5200 1675 c0 -7 -8 -18 -17 -24 -10 -5 -15 -13 -10 -17 9 -9 48 36
41 47 -8 13 -14 11 -14 -6z"/>
<path d="M5298 1683 c7 -3 16 -2 19 1 4 3 -2 6 -13 5 -11 0 -14 -3 -6 -6z"/>
<path d="M5230 1660 c-8 -5 -10 -10 -5 -10 6 0 17 5 25 10 8 5 11 10 5 10 -5
0 -17 -5 -25 -10z"/>
<path d="M5279 1583 c-41 -56 -51 -73 -45 -73 4 0 61 78 80 108 18 29 -3 8
-35 -35z"/>
<path d="M770 1516 c0 -2 8 -10 18 -17 15 -13 16 -12 3 4 -13 16 -21 21 -21
13z"/>
<path d="M900 1336 c0 -2 8 -10 18 -17 15 -13 16 -12 3 4 -13 16 -21 21 -21
13z"/>
<path d="M930 1296 c0 -2 8 -10 18 -17 15 -13 16 -12 3 4 -13 16 -21 21 -21
13z"/>
<path d="M992 1221 c13 -16 30 -32 38 -36 8 -3 -1 10 -19 29 -42 44 -51 46
-19 7z"/>
<path d="M1065 1140 c10 -11 20 -20 23 -20 3 0 -3 9 -13 20 -10 11 -20 20 -23
20 -3 0 3 -9 13 -20z"/>
<path d="M4964 1108 l-19 -23 23 19 c21 18 27 26 19 26 -2 0 -12 -10 -23 -22z"/>
<path d="M1165 1046 c111 -106 355 -285 475 -351 43 -23 -18 21 -121 87 -64
42 -160 112 -215 157 -54 45 -119 98 -144 117 -45 36 -45 36 5 -10z"/>
<path d="M4705 969 c-11 -17 1 -21 15 -4 8 9 8 15 2 15 -6 0 -14 -5 -17 -11z"/>
<path d="M4669 933 c-13 -16 -12 -17 4 -4 16 13 21 21 13 21 -2 0 -10 -8 -17
-17z"/>
<path d="M4680 869 c-22 -18 -22 -19 -3 -10 12 6 25 16 28 21 9 15 3 12 -25
-11z"/>
<path d="M4609 819 c-23 -19 -23 -20 -2 -10 12 6 25 16 28 21 10 16 -1 12 -26
-11z"/>
<path d="M4549 779 l-24 -20 28 17 c15 9 27 18 27 20 0 8 -8 4 -31 -17z"/>
<path d="M4464 724 c-18 -14 -18 -15 4 -4 12 6 22 13 22 15 0 8 -5 6 -26 -11z"/>
<path d="M1660 686 c0 -3 14 -12 30 -21 17 -9 30 -13 30 -11 0 3 -13 12 -30
21 -16 9 -30 13 -30 11z"/>
<path d="M4010 660 c0 -5 7 -7 15 -4 8 4 15 8 15 10 0 2 -7 4 -15 4 -8 0 -15
-4 -15 -10z"/>
<path d="M1750 636 c0 -8 101 -58 106 -53 3 2 -12 12 -33 22 -21 10 -46 22
-55 27 -10 5 -18 6 -18 4z"/>
<path d="M4265 620 c-3 -6 1 -7 9 -4 18 7 21 14 7 14 -6 0 -13 -4 -16 -10z"/>
<path d="M4225 600 c-3 -6 1 -7 9 -4 18 7 21 14 7 14 -6 0 -13 -4 -16 -10z"/>
<path d="M4165 574 c-16 -8 -55 -25 -85 -39 -30 -14 -44 -22 -30 -19 32 9 168
72 155 73 -5 0 -23 -7 -40 -15z"/>
<path d="M1920 550 c30 -16 62 -29 70 -29 8 0 -14 13 -49 29 -81 38 -93 38
-21 0z"/>
<path d="M2085 481 c93 -44 452 -133 523 -130 l27 2 -25 4 c-124 21 -336 71
-430 103 -160 53 -162 54 -95 21z"/>
<path d="M3962 493 c-24 -8 -41 -17 -39 -19 4 -5 97 26 97 32 0 6 -11 4 -58
-13z"/>
<path d="M3865 460 c-13 -6 -15 -9 -5 -9 8 0 22 4 30 9 18 12 2 12 -25 0z"/>
<path d="M3788 433 c7 -3 16 -2 19 1 4 3 -2 6 -13 5 -11 0 -14 -3 -6 -6z"/>
<path d="M3688 403 c7 -3 16 -2 19 1 4 3 -2 6 -13 5 -11 0 -14 -3 -6 -6z"/>
<path d="M3598 383 c7 -3 16 -2 19 1 4 3 -2 6 -13 5 -11 0 -14 -3 -6 -6z"/>
<path d="M3483 363 c9 -2 23 -2 30 0 6 3 -1 5 -18 5 -16 0 -22 -2 -12 -5z"/>
<path d="M3413 353 c9 -2 25 -2 35 0 9 3 1 5 -18 5 -19 0 -27 -2 -17 -5z"/>
<path d="M2658 343 c12 -2 30 -2 40 0 9 3 -1 5 -23 4 -22 0 -30 -2 -17 -4z"/>
<path d="M3323 343 c9 -2 23 -2 30 0 6 3 -1 5 -18 5 -16 0 -22 -2 -12 -5z"/>
<path d="M2758 333 c17 -2 47 -2 65 0 17 2 3 4 -33 4 -36 0 -50 -2 -32 -4z"/>
<path d="M3167 333 c18 -2 50 -2 70 0 21 2 7 4 -32 4 -38 0 -55 -2 -38 -4z"/>
<path d="M2948 323 c17 -2 47 -2 65 0 17 2 3 4 -33 4 -36 0 -50 -2 -32 -4z"/>
<path d="M1753 3305 c0 -9 4 -14 9 -13 5 2 10 8 10 13 0 5 -5 11 -10 13 -5 1
-9 -4 -9 -13z"/>
<path d="M4308 1523 c7 -3 16 -2 19 1 4 3 -2 6 -13 5 -11 0 -14 -3 -6 -6z"/>
<path d="M1528 1753 c7 -3 16 -2 19 1 4 3 -2 6 -13 5 -11 0 -14 -3 -6 -6z"/>
<path d="M1606 1748 c3 -5 10 -6 15 -3 13 9 11 12 -6 12 -8 0 -12 -4 -9 -9z"/>
<path d="M1480 1699 c0 -6 8 -9 18 -7 11 2 26 -3 35 -11 10 -7 17 -9 17 -3 0
10 -22 23 -52 28 -10 2 -18 -1 -18 -7z"/>
<path d="M1682 1691 c2 -9 10 -16 18 -17 8 0 28 -4 43 -8 16 -5 32 -5 37 0 5
5 -4 9 -21 10 -17 1 -36 7 -42 13 -9 10 -6 10 16 2 37 -14 47 -13 22 1 -31 18
-76 18 -73 -1z"/>
<path d="M1586 1651 c-7 -10 43 -46 51 -37 3 3 -6 11 -20 17 -15 7 -24 16 -21
20 3 5 3 9 0 9 -3 0 -7 -4 -10 -9z"/>
<path d="M1660 1635 c-7 -9 -8 -15 -2 -15 5 0 12 7 16 15 3 8 4 15 2 15 -2 0
-9 -7 -16 -15z"/>
<path d="M1745 1640 c-3 -5 -1 -10 4 -10 6 0 11 5 11 10 0 6 -2 10 -4 10 -3 0
-8 -4 -11 -10z"/>
<path d="M1750 1600 c0 -12 27 -12 55 0 16 7 13 9 -17 9 -21 1 -38 -3 -38 -9z"/>
<path d="M1867 1603 c-10 -9 -9 -23 2 -23 5 0 11 7 15 15 5 15 -5 20 -17 8z"/>
<path d="M1700 1575 c33 -19 46 -19 30 0 -7 8 -22 15 -34 15 -20 -1 -20 -2 4
-15z"/>
<path d="M1817 1569 c7 -7 15 -10 18 -7 3 3 -2 9 -12 12 -14 6 -15 5 -6 -5z"/>
<path d="M1940 1571 c0 -20 61 -70 78 -63 9 3 13 1 9 -5 -13 -21 4 -42 32 -40
26 2 27 4 19 30 -10 26 -13 29 -40 31 -7 1 -19 8 -26 16 -8 8 -11 9 -7 3 12
-24 -23 -13 -44 13 -12 15 -21 21 -21 15z m115 -61 c3 -5 1 -10 -4 -10 -6 0
-11 5 -11 10 0 6 2 10 4 10 3 0 8 -4 11 -10z"/>
<path d="M1775 1551 c17 -5 39 -12 50 -16 15 -6 17 -5 9 4 -6 6 -28 14 -50 16
-35 4 -36 4 -9 -4z"/>
<path d="M1780 1526 c0 -2 7 -7 16 -10 8 -3 12 -2 9 4 -6 10 -25 14 -25 6z"/>
<path d="M1831 1521 c-11 -7 -9 -10 8 -16 11 -3 21 -10 21 -15 0 -4 10 -6 23
-3 16 3 18 2 8 -5 -11 -8 -10 -12 7 -21 18 -10 21 -9 16 4 -4 9 -3 15 2 14 5
-1 23 0 39 1 24 2 20 4 -18 10 -27 5 -57 16 -66 24 -20 18 -21 19 -40 7z"/>
<path d="M1938 1503 c7 -3 16 -2 19 1 4 3 -2 6 -13 5 -11 0 -14 -3 -6 -6z"/>
<path d="M2090 1504 c0 -16 44 -54 63 -54 9 0 16 -3 16 -7 -3 -20 3 -23 24
-12 20 11 21 11 8 -5 -8 -9 -11 -20 -7 -23 8 -8 26 15 26 33 0 7 -7 15 -16 18
-9 4 -13 2 -8 -5 4 -7 2 -9 -7 -5 -8 3 -22 9 -31 12 -10 4 -18 10 -18 15 0 5
-5 9 -11 9 -7 0 -18 8 -25 18 -7 9 -14 12 -14 6z"/>
<path d="M2100 1440 c0 -5 5 -10 10 -10 6 0 10 5 10 10 0 6 -4 10 -10 10 -5 0
-10 -4 -10 -10z"/>
<path d="M2026 1387 c11 -9 33 -19 47 -22 15 -4 27 -11 27 -16 0 -5 9 -9 21
-9 11 0 18 4 15 9 -8 12 -64 38 -101 46 -29 7 -29 7 -9 -8z"/>
<path d="M2250 1391 c0 -5 5 -13 10 -16 6 -3 10 -2 10 4 0 5 -4 13 -10 16 -5
3 -10 2 -10 -4z"/>
<path d="M2268 1353 c7 -3 16 -2 19 1 4 3 -2 6 -13 5 -11 0 -14 -3 -6 -6z"/>
<path d="M2140 1330 c-13 -8 -12 -10 3 -10 9 0 17 5 17 10 0 12 -1 12 -20 0z"/>
<path d="M2185 1330 c11 -5 27 -9 35 -9 9 0 8 4 -5 9 -11 5 -27 9 -35 9 -9 0
-8 -4 5 -9z"/>
</g>
</svg>
